{"title":"Emperor 2012 BRRip 720p x264 AAC - PRiSTiNE [P2PDL]","uid":8763242,"size":623510709,"categoryP":"video","categoryS":"hd___movies","magnet":"?xt=urn:btih:9f64914864b4c1a7a49e660a5e5d8cfb437a2aab&amp;dn=Emperor+2012+BRRip+720p+x264+AAC+-+PRiSTiNE+%5BP2PDL%5D&amp;tr=udp%3A%2F%2Ftracker.openbittorrent.com%3A80&amp;tr=udp%3A%2F%2Fopen.demonii.com%3A1337&amp;tr=udp%3A%2F%2Ftracker.coppersurfer.tk%3A6969&amp;tr=udp%3A%2F%2Fexodus.desync.com%3A6969","seeders":2,"leechers":1,"uploader":"ValidusVyto","files":-1,"time":1375284137,"description":"_______ Visit us at our Semi Public Bittorrent Community ________\n  &lt;a href=&quot;\nhttp://p2pdl.com&quot; rel=&quot;nofollow&quot; target=&quot;_NEW&quot;&gt;\nhttp://p2pdl.com&lt;/a&gt;  _____________________________ &lt;a href=&quot; http://p2pdl.com&quot; rel=&quot;nofollow&quot; target=&quot;_NEW&quot;&gt; http://p2pdl.com&lt;/a&gt;\n\n\nEmperor 2012 BRRip 720p x264 AAC - PRiSTiNE\n\n\nGenre: Drama | History | War\nPlot: As the Japanese surrender at the end of WWII, Gen. Fellers is tasked with\ndeciding if Emperor Hirohito will be hanged as a war criminal. Influencing his\nruling is his quest to find Aya, an exchange student he met years earlier in the U.S. \nDirector: Peter Webber\nStars: Matthew Fox, Tommy Lee Jones, Eriko Hatsune.\nRated: PG-13 for violent content, brief strong language and smoking (historical).\n\nInfo: &lt;a href=&quot;\nhttp://www.imdb.com/title/tt2103264/&quot; rel=&quot;nofollow&quot; target=&quot;_NEW&quot;&gt;\nhttp://www.imdb.com/title/tt2103264/&lt;/a&gt;\n\nTrailer:\n\n\nFormat                         : MPEG-4\nFile size                      : 590 MiB\nDuration                       : 1h 45mn\nOverall bit rate               : 781 Kbps\nSource                         : 720p.BluRay.DTS.x264-PublicHD\n\nVideo\nFormat                         : AVC\nBit rate                       : 699 Kbps\nWidth                          : 1 280 pixels\nHeight                         : 544 pixels\nDisplay aspect ratio           : 2.35:1\nFrame rate mode                : Constant\nFrame rate                     : 23.976 fps\nStream size                    : 527 MiB (89%)\nWriting library                : x264 core 130 r2273\n\nAudio\nFormat                         : AAC\nBit rate mode                  : Variable\nBit rate                       : 79.8 Kbps\nChannel(s)                     : 2 channels\nChannel positions              : Front: L R\nSampling rate                  : 48.0 KHz\nStream size                    : 60.2 MiB (10%)\nLanguage                       : English\n\nSubtitle                       : Yes(English)\n &lt;a href=&quot;\nhttp://someimage.com/stY8gND&quot; rel=&quot;nofollow&quot; target=&quot;_NEW&quot;&gt;\nhttp://someimage.com/stY8gND&lt;/a&gt; &lt;a href=&quot;\nhttp://someimage.com/0Yuk0FT&quot; rel=&quot;nofollow&quot; target=&quot;_NEW&quot;&gt;\nhttp://someimage.com/0Yuk0FT&lt;/a&gt; &lt;a href=&quot;\nhttp://someimage.com/MGiddTo&quot; rel=&quot;nofollow&quot; target=&quot;_NEW&quot;&gt;\nhttp://someimage.com/MGiddTo&lt;/a&gt; &lt;a href=&quot;\nhttp://someimage.com/cMe3lP0&quot; rel=&quot;nofollow&quot; target=&quot;_NEW&quot;&gt;\nhttp://someimage.com/cMe3lP0&lt;/a&gt; &lt;a href=&quot;\nhttp://someimage.com/7g1qzPo&quot; rel=&quot;nofollow&quot; target=&quot;_NEW&quot;&gt;\nhttp://someimage.com/7g1qzPo&lt;/a&gt; &lt;a href=&quot;\nhttp://someimage.com/GtRwibH&quot; rel=&quot;nofollow&quot; target=&quot;_NEW&quot;&gt;\nhttp://someimage.com/GtRwibH&lt;/a&gt;\n\n\n----------------------------------------------------------------------------------------------------\n\n\nEncoded using revolutionary 10bit encoding, which enables us to provide you more crispier \nand sharper images at small sizes, just make sure you follow our instructions without a fault.\nRecommend to you to use latest version of VLC player. Install K-Lite Codec Pack or shark007 codecs\nin case of any kind of problem in playback (For non-VLC Media Player users). Alternatively, install\nCore AVC codecs, the fastest decoder that there is coupled with Community Center Codec Pack and play\non Windows Media Player Classic. Check sample to be sure.\nEnjoy!\n\nEncoder Notes:Looking For Early Access To Anything You Can Provide DVDScr, R5, DVDR, BluRay, Direct\nAudio, Music Releases and Seedboxes. We require dedicated servers, so as to do more \nand fast releases of movies.\nIf You Got anything to offer please contact us at &quot;&lt;a class=&quot;__cf_email__&quot; href=&quot;/cdn-cgi/l/email-protection&quot; data-cfemail=&quot;39494b5e79514c4a51175a5654&quot;&gt;[email&amp;#160;protected]&lt;/a&gt;&lt;script cf-hash='f9e31' type=&quot;text/javascript&quot;&gt;\n/* &lt;![CDATA[ */!function(){try{var t=&quot;currentScript&quot;in document?document.currentScript:function(){for(var t=document.getElementsByTagName(&quot;script&quot;),e=t.length;e--;)if(t[e].getAttribute(&quot;cf-hash&quot;))return t[e]}();if(t&amp;&amp;t.previousSibling){var e,r,n,i,c=t.previousSibling,a=c.getAttribute(&quot;data-cfemail&quot;);if(a){for(e=&quot;&quot;,r=parseInt(a.substr(0,2),16),n=2;a.length-n;n+=2)i=parseInt(a.substr(n,2),16)^r,e+=String.fromCharCode(i);e=document.createTextNode(e),c.parentNode.replaceChild(e,c)}}}catch(u){}}();/* ]]&gt; */&lt;/script&gt;&quot;.\n\nFace book Fan Page:  \nSearch 'P2PDL' on FB, and hit like!!!","torrent":{"xt":"urn:btih:9f64914864b4c1a7a49e660a5e5d8cfb437a2aab","amp;dn":"Emperor+2012+BRRip+720p+x264+AAC+-+PRiSTiNE+%5BP2PDL%5D","amp;tr":["udp%3A%2F%2Ftracker.openbittorrent.com%3A80","udp%3A%2F%2Fopen.demonii.com%3A1337","udp%3A%2F%2Ftracker.coppersurfer.tk%3A6969","udp%3A%2F%2Fexodus.desync.com%3A6969"],"infoHash":"9f64914864b4c1a7a49e660a5e5d8cfb437a2aab","infoHashBuffer":{"type":"Buffer","data":[159,100,145,72,100,180,193,167,164,158,102,10,94,93,140,251,67,122,42,171]},"announce":[],"urlList":[]}}